<?xml version="1.0" encoding="utf-8"?>
<!-- Generator: Avocode 2.6.0 - http://avocode.com -->
<svg height="21" width="20" xmlns:xlink="http://www.w3.org/1999/xlink" xmlns="http://www.w3.org/2000/svg" viewBox="0 0 20 21">
    <path fill="#bd911f" fill-rule="evenodd" d="M 13.89 13.46 C 15.21 12.03 16.03 10.12 16.03 8.02 C 16.03 3.6 12.44 0 8.02 0 C 3.59 0 0 3.6 0 8.02 C 0 12.43 3.59 16.03 8.02 16.03 C 9.82 16.03 11.47 15.44 12.82 14.44 L 18.78 20.4 C 18.92 20.54 19.1 20.61 19.28 20.61 C 19.47 20.61 19.66 20.54 19.79 20.4 C 20.07 20.12 20.07 19.66 19.79 19.37 L 13.89 13.46 L 13.89 13.46 Z M 1.45 8.02 C 1.45 4.4 4.39 1.45 8.02 1.45 C 11.63 1.45 14.58 4.39 14.58 8.02 C 14.58 11.64 11.64 14.58 8.02 14.58 C 4.39 14.58 1.45 11.63 1.45 8.02 L 1.45 8.02 Z M 1.45 8.02" />
</svg>