<?xml version="1.0" encoding="utf-8"?>
<!-- Generator: Avocode 2.6.0 - http://avocode.com -->
<svg height="18" width="17" xmlns:xlink="http://www.w3.org/1999/xlink" xmlns="http://www.w3.org/2000/svg" viewBox="0 0 17 18">
    <path id="google-icon" fill="#000" fill-rule="evenodd" d="M 5.56 16.94 C 3.47 16.94 1.96 15.61 1.96 14.02 C 1.96 12.45 3.83 11.14 5.92 11.17 C 6.41 11.17 6.86 11.25 7.27 11.38 C 8.4 12.18 9.22 12.63 9.45 13.53 C 9.49 13.72 9.51 13.9 9.51 14.1 C 9.51 15.7 8.49 16.94 5.56 16.94 M 6.1 7.57 C 4.7 7.53 3.37 5.99 3.13 4.14 C 2.89 2.28 3.83 0.86 5.23 0.91 C 6.63 0.95 7.96 2.43 8.2 4.29 C 8.45 6.14 7.51 7.61 6.1 7.57 M 9.01 10.31 C 8.52 9.96 7.58 9.11 7.58 8.61 C 7.58 8.02 7.75 7.73 8.62 7.04 C 9.52 6.33 10.16 5.34 10.16 4.18 C 10.16 2.8 9.55 1.46 8.4 1.02 L 10.13 1.02 L 11.35 0.13 L 5.91 0.13 C 3.47 0.13 1.18 1.99 1.18 4.15 C 1.18 6.35 2.84 8.13 5.32 8.13 C 5.49 8.13 5.66 8.12 5.82 8.11 C 5.66 8.42 5.55 8.77 5.55 9.13 C 5.55 9.75 5.87 10.24 6.29 10.65 C 5.97 10.65 5.67 10.66 5.34 10.66 C 2.32 10.66 0 12.59 0 14.6 C 0 16.58 2.55 17.82 5.57 17.82 C 9.01 17.82 10.91 15.85 10.91 13.87 C 10.91 12.29 10.45 11.34 9.01 10.31 M 16.92 7.73 L 14.8 7.73 L 14.8 5.6 L 13.1 5.6 L 13.1 7.73 L 10.98 7.73 L 10.98 9.45 L 13.1 9.45 L 13.1 11.58 L 14.8 11.58 L 14.8 9.45 L 16.92 9.45 L 16.92 7.73" />
</svg>