<?xml version="1.0" encoding="utf-8"?>
<!-- Generator: Avocode 2.6.0 - http://avocode.com -->
<svg height="17" width="17" xmlns:xlink="http://www.w3.org/1999/xlink" xmlns="http://www.w3.org/2000/svg" viewBox="0 0 17 17">
    <path id="insta-icon" fill="#bd911f" fill-rule="evenodd" d="M 13.71 0 L 3.29 0 C 1.47 0 0 1.47 0 3.29 L 0 13.71 C 0 15.53 1.47 17 3.29 17 L 13.71 17 C 15.53 17 17 15.53 17 13.71 L 17 3.29 C 17 1.47 15.53 0 13.71 0 L 13.71 0 Z M 14.66 1.96 L 15.03 1.96 L 15.03 4.84 L 12.16 4.85 L 12.15 1.97 L 14.66 1.96 L 14.66 1.96 Z M 6.07 6.75 C 6.62 6 7.5 5.51 8.5 5.51 C 9.5 5.51 10.38 6 10.93 6.75 C 11.28 7.25 11.49 7.85 11.49 8.5 C 11.49 10.15 10.15 11.49 8.5 11.49 C 6.85 11.49 5.51 10.15 5.51 8.5 C 5.51 7.85 5.72 7.25 6.07 6.75 L 6.07 6.75 Z M 15.34 13.71 C 15.34 14.61 14.61 15.34 13.71 15.34 L 3.29 15.34 C 2.39 15.34 1.66 14.61 1.66 13.71 L 1.66 6.75 L 4.2 6.75 C 3.98 7.29 3.85 7.88 3.85 8.5 C 3.85 11.06 5.94 13.15 8.5 13.15 C 11.06 13.15 13.15 11.06 13.15 8.5 C 13.15 7.88 13.02 7.29 12.81 6.75 L 15.34 6.75 L 15.34 13.71 L 15.34 13.71 Z M 15.34 13.71" />
</svg>