<?xml version="1.0" encoding="UTF-8" standalone="no"?>
<svg width="170px" height="74px" viewBox="0 0 170 74" version="1.1" xmlns="http://www.w3.org/2000/svg" xmlns:xlink="http://www.w3.org/1999/xlink">
    <!-- Generator: Sketch 3.6.1 (26313) - http://www.bohemiancoding.com/sketch -->
    <title>Feldman_Logo</title>
    <desc>Created with Sketch.</desc>
    <defs></defs>
    <g id="Page-1" stroke="none" stroke-width="1" fill="none" fill-rule="evenodd">
        <g id="Feldman_Logo">
            <path d="M24.139,46.891 C24.139,42.911 24.139,42.188 24.078,41.376 C24.019,40.502 23.868,40.081 22.995,39.959 C22.783,39.93 22.331,39.899 22.091,39.899 C22.001,39.899 21.88,39.781 21.88,39.687 C21.88,39.538 22.001,39.48 22.303,39.48 C23.506,39.48 25.224,39.538 25.374,39.538 C25.556,39.538 31.098,39.567 31.7,39.538 C32.213,39.509 32.694,39.418 32.905,39.387 C33.024,39.356 33.147,39.269 33.268,39.269 C33.357,39.269 33.387,39.387 33.387,39.509 C33.387,39.687 33.238,39.99 33.177,40.715 C33.147,40.955 33.085,42.099 33.024,42.398 C32.995,42.52 32.905,42.671 32.785,42.671 C32.635,42.671 32.575,42.549 32.575,42.338 C32.575,42.159 32.543,41.737 32.424,41.436 C32.243,41.016 31.972,40.833 30.525,40.651 C30.074,40.591 27,40.562 26.699,40.562 C26.579,40.562 26.548,40.651 26.548,40.833 L26.548,47.793 C26.548,47.973 26.548,48.063 26.699,48.063 C27.03,48.063 30.525,48.063 31.129,48.002 C31.76,47.941 32.152,47.911 32.424,47.643 C32.603,47.463 32.726,47.312 32.814,47.312 C32.905,47.312 32.965,47.369 32.965,47.522 C32.965,47.672 32.814,48.093 32.755,48.938 C32.694,49.449 32.635,50.414 32.635,50.592 C32.635,50.805 32.575,51.074 32.394,51.074 C32.272,51.074 32.213,50.986 32.213,50.835 C32.213,50.592 32.213,50.322 32.091,49.988 C32.002,49.629 31.76,49.328 30.737,49.207 C30.013,49.119 27.182,49.088 26.729,49.088 C26.579,49.088 26.548,49.179 26.548,49.27 L26.548,51.405 C26.548,52.281 26.52,55.264 26.548,55.775 C26.608,57.492 27.091,57.824 29.711,57.824 C30.404,57.824 31.669,57.824 32.363,57.552 C33.056,57.25 33.418,56.8 33.568,55.775 C33.627,55.475 33.689,55.383 33.839,55.383 C33.99,55.383 34.02,55.594 34.02,55.775 C34.02,55.953 33.81,57.701 33.659,58.244 C33.478,58.906 33.206,58.906 32.182,58.906 C30.195,58.906 28.658,58.847 27.572,58.816 C26.459,58.758 25.767,58.758 25.374,58.758 C25.315,58.758 24.802,58.758 24.23,58.787 C23.718,58.816 23.116,58.847 22.692,58.847 C22.422,58.847 22.271,58.787 22.271,58.635 C22.271,58.547 22.331,58.428 22.481,58.428 C22.725,58.428 23.055,58.334 23.296,58.304 C23.807,58.213 23.868,57.701 23.988,56.949 C24.139,55.896 24.139,53.879 24.139,51.405 L24.139,46.891" id="Fill-1" fill="#1A1918"></path>
            <path d="M24.139,46.891 C24.139,42.911 24.139,42.188 24.078,41.376 C24.019,40.502 23.868,40.081 22.995,39.959 C22.783,39.93 22.331,39.899 22.091,39.899 C22.001,39.899 21.88,39.781 21.88,39.687 C21.88,39.538 22.001,39.48 22.303,39.48 C23.506,39.48 25.224,39.538 25.374,39.538 C25.556,39.538 31.098,39.567 31.7,39.538 C32.213,39.509 32.694,39.418 32.905,39.387 C33.024,39.356 33.147,39.269 33.268,39.269 C33.357,39.269 33.387,39.387 33.387,39.509 C33.387,39.687 33.238,39.99 33.177,40.715 C33.147,40.955 33.085,42.099 33.024,42.398 C32.995,42.52 32.905,42.671 32.785,42.671 C32.635,42.671 32.575,42.549 32.575,42.338 C32.575,42.159 32.543,41.737 32.424,41.436 C32.243,41.016 31.972,40.833 30.525,40.651 C30.074,40.591 27,40.562 26.699,40.562 C26.579,40.562 26.548,40.651 26.548,40.833 L26.548,47.793 C26.548,47.973 26.548,48.063 26.699,48.063 C27.03,48.063 30.525,48.063 31.129,48.002 C31.76,47.941 32.152,47.911 32.424,47.643 C32.603,47.463 32.726,47.312 32.814,47.312 C32.905,47.312 32.965,47.369 32.965,47.522 C32.965,47.672 32.814,48.093 32.755,48.938 C32.694,49.449 32.635,50.414 32.635,50.592 C32.635,50.805 32.575,51.074 32.394,51.074 C32.272,51.074 32.213,50.986 32.213,50.835 C32.213,50.592 32.213,50.322 32.091,49.988 C32.002,49.629 31.76,49.328 30.737,49.207 C30.013,49.119 27.182,49.088 26.729,49.088 C26.579,49.088 26.548,49.179 26.548,49.27 L26.548,51.405 C26.548,52.281 26.52,55.264 26.548,55.775 C26.608,57.492 27.091,57.824 29.711,57.824 C30.404,57.824 31.669,57.824 32.363,57.552 C33.056,57.25 33.418,56.8 33.568,55.775 C33.627,55.475 33.689,55.383 33.839,55.383 C33.99,55.383 34.02,55.594 34.02,55.775 C34.02,55.953 33.81,57.701 33.659,58.244 C33.478,58.906 33.206,58.906 32.182,58.906 C30.195,58.906 28.658,58.847 27.572,58.816 C26.459,58.758 25.767,58.758 25.374,58.758 C25.315,58.758 24.802,58.758 24.23,58.787 C23.718,58.816 23.116,58.847 22.692,58.847 C22.422,58.847 22.271,58.787 22.271,58.635 C22.271,58.547 22.331,58.428 22.481,58.428 C22.725,58.428 23.055,58.334 23.296,58.304 C23.807,58.213 23.868,57.701 23.988,56.949 C24.139,55.896 24.139,53.879 24.139,51.405 L24.139,46.891 L24.139,46.891 Z" id="Stroke-2" stroke="#1A1918" stroke-width="0.25"></path>
            <path d="M151.204,39.899 C150.933,39.629 150.481,39.117 150.181,39.117 C149.969,39.117 149.819,39.387 149.819,40.413 L149.819,55.08 C149.819,57.402 149.729,58.095 149.067,58.274 C148.674,58.398 148.192,58.428 147.981,58.428 C147.862,58.428 147.771,58.516 147.771,58.635 C147.771,58.816 147.922,58.847 148.192,58.847 C149.398,58.847 150.512,58.758 150.753,58.758 C150.995,58.758 152.05,58.847 153.554,58.847 C153.855,58.847 154.035,58.787 154.035,58.635 C154.035,58.516 153.946,58.428 153.826,58.428 C153.585,58.428 152.983,58.398 152.501,58.274 C151.778,58.095 151.534,57.461 151.476,55.354 L151.175,43.272 C151.988,44.177 154.971,47.312 158.042,50.533 C158.513,51.021 159.011,51.536 159.512,52.049 L159.512,48.566 C155.439,44.375 151.625,40.319 151.204,39.899" id="Fill-3" fill="#1A1918"></path>
            <path d="M151.204,39.899 C150.933,39.629 150.481,39.117 150.181,39.117 C149.969,39.117 149.819,39.387 149.819,40.413 L149.819,55.08 C149.819,57.402 149.729,58.095 149.067,58.274 C148.674,58.398 148.192,58.428 147.981,58.428 C147.862,58.428 147.771,58.516 147.771,58.635 C147.771,58.816 147.922,58.847 148.192,58.847 C149.398,58.847 150.512,58.758 150.753,58.758 C150.995,58.758 152.05,58.847 153.554,58.847 C153.855,58.847 154.035,58.787 154.035,58.635 C154.035,58.516 153.946,58.428 153.826,58.428 C153.585,58.428 152.983,58.398 152.501,58.274 C151.778,58.095 151.534,57.461 151.476,55.354 L151.175,43.272 C151.988,44.177 154.971,47.312 158.042,50.533 C158.513,51.021 159.011,51.536 159.512,52.049 L159.512,48.566 C155.439,44.375 151.625,40.319 151.204,39.899 L151.204,39.899 Z" id="Stroke-4" stroke="#1A1918" stroke-width="0.25"></path>
            <path d="M86.533,35.854 C80.147,33.913 74.419,30.834 68.596,27.441 C71.912,25.218 74.998,22.688 77.902,20.165 C79.842,18.48 81.813,16.74 83.859,15.142 C92.657,20.659 101.134,26.791 110.134,31.953 C104.213,37.809 94.444,38.263 86.533,35.854 L86.533,35.854 Z M59.724,31.379 C50.723,34.91 38.492,35.611 30.757,28.971 C25.458,24.423 25.519,17.252 28.545,11.694 C31.646,12.056 34.665,12.762 37.386,13.705 C47.009,17.034 55.377,23.101 64.389,27.729 C64.832,27.956 65.27,28.184 65.7,28.408 C63.826,29.538 61.852,30.543 59.724,31.379 L59.724,31.379 Z M32.57,6.752 C41.107,-0.355 54.376,0.84 64.819,5.072 C71.218,7.664 77.219,11.009 83.071,14.647 C77.913,18.785 73.274,23.362 67.873,27.018 C58.088,21.284 47.948,14.758 33.899,11.3 C32.394,10.928 30.838,10.663 29.259,10.499 C30.18,9.086 31.297,7.809 32.57,6.752 L32.57,6.752 Z M104.34,9.26 C113.671,11.694 117.74,21.072 112.225,29.403 C111.983,29.77 111.73,30.119 111.467,30.457 C106.6,27.38 102.141,23.923 97.177,20.739 C93.409,18.324 89.668,15.899 85.91,13.612 C91.227,9.851 97.128,7.377 104.34,9.26 L104.34,9.26 Z M166.218,13.63 C159.301,2.489 139.983,4.611 137.236,17.855 C135.979,23.914 139.158,32.026 146,32.799 C151.371,33.406 154.918,30.417 156.09,26.337 C157.172,22.556 155.716,18.836 152.043,17.685 C151.948,17.653 151.135,17.63 151.059,17.685 C150.14,18.342 151.059,19.265 151.059,19.265 C155.486,20.656 155.89,24.726 154.54,28.022 C152.898,32.037 147.115,34.274 141.596,30.128 C138.489,27.792 137.741,23.368 137.851,19.726 C138.077,12.137 145.114,7.15 152.043,7.019 C160.129,6.87 166.352,12.771 168.212,20.085 C170.028,27.22 167.765,33.806 161.967,38.357 C154.364,44.32 143.946,43.074 135.181,41.074 C127.407,39.302 120.679,35.907 113.843,31.908 C113.226,31.544 112.613,31.174 112.009,30.798 C114.223,28.164 115.589,24.8 115.621,20.688 C115.681,13.539 107.838,8.545 101.321,8.076 C95.644,7.673 89.81,9.551 85.349,12.88 C85.254,12.951 85.156,13.024 85.06,13.096 C77.488,8.538 69.821,4.578 61.673,2.406 C49.822,-0.754 34.722,0.604 28.582,10.434 C15.722,9.351 1.571,15.17 0.573,28.974 C0.145,34.866 3.53,42.746 9.713,44.6 C14.257,45.964 20.357,44.851 24.127,42.159 C29.327,38.437 30.007,30.642 26.008,26.704 C23.025,23.769 17.385,23.62 14.491,26.455 C12.312,28.597 12.166,32.465 14.25,34.518 C16.001,36.241 17.396,34.619 17.335,34.574 C16.091,33.697 14.527,32.059 14.834,29.908 C15.335,26.406 18.901,24.615 22.501,25.572 C25.859,26.468 28.035,30.551 27.914,33.815 C27.755,37.979 25.164,41.055 22.174,42.618 C17.303,45.164 10.415,45.437 6.499,41.979 C0.248,36.458 0.034,27.227 4.266,20.648 C9.305,12.81 18.893,10.724 27.904,11.625 C27.22,12.947 26.686,14.41 26.327,16.013 C22.551,32.881 42.239,36.79 54.88,33.755 C59.038,32.756 62.88,30.987 66.456,28.809 C73.169,32.369 78.556,35.6 88.989,37.518 C96.577,38.917 105.297,37.202 110.636,32.238 C113.271,33.737 115.953,35.15 118.703,36.439 C129.917,41.692 144.022,45.641 156.257,42.006 C168.814,38.277 172.843,24.305 166.218,13.63 L166.218,13.63 Z" id="Fill-5" fill="#8A8B8A"></path>
            <path d="M6.565,63.43 C6.467,63.436 6.424,63.492 6.356,63.512 C6.255,63.545 6.039,63.551 5.783,63.563 C5.569,63.572 4.14,63.578 3.229,63.578 C2.853,63.578 2.562,63.578 2.485,63.574 L1.937,63.551 C1.637,63.537 1.276,63.537 0.966,63.537 C0.824,63.537 0.69,63.57 0.687,63.705 C0.69,63.813 0.79,63.851 0.859,63.851 C0.976,63.851 1.206,63.865 1.299,63.887 C1.722,63.986 1.792,64.143 1.829,64.596 C1.857,65.023 1.857,65.398 1.857,67.49 L1.857,69.856 C1.857,71.141 1.856,72.205 1.79,72.762 C1.736,73.152 1.666,73.408 1.451,73.444 C1.332,73.47 1.171,73.498 1.061,73.498 C0.958,73.498 0.891,73.568 0.891,73.641 C0.892,73.775 1.024,73.811 1.168,73.811 C1.573,73.811 2.421,73.771 2.483,73.771 C2.544,73.771 3.395,73.811 4.137,73.811 C4.285,73.811 4.408,73.768 4.413,73.641 C4.413,73.568 4.344,73.498 4.243,73.498 C4.128,73.498 3.831,73.47 3.647,73.444 C3.284,73.392 3.224,73.152 3.177,72.762 C3.112,72.205 3.112,71.141 3.112,69.856 L3.112,68.715 C3.126,68.656 3.112,68.671 3.142,68.656 C3.368,68.656 4.837,68.656 5.162,68.696 C5.555,68.746 5.747,68.973 5.808,69.138 C5.857,69.289 5.87,69.471 5.884,69.604 C5.884,69.678 5.93,69.783 6.043,69.783 C6.223,69.761 6.192,69.574 6.198,69.467 C6.198,69.376 6.227,68.836 6.25,68.572 C6.291,68.128 6.356,67.918 6.358,67.814 C6.358,67.748 6.333,67.643 6.229,67.643 C6.117,67.654 6.085,67.741 6.031,67.803 C5.925,67.955 5.781,67.992 5.46,68.018 C5.273,68.031 5.088,68.031 4.86,68.031 L3.14,68.047 C3.112,68.031 3.126,68.047 3.112,67.988 L3.112,64.285 C3.123,64.188 3.115,64.209 3.169,64.199 L5.234,64.239 C5.738,64.25 6.027,64.49 6.092,64.633 C6.166,64.795 6.206,65.023 6.206,65.117 C6.206,65.213 6.239,65.336 6.365,65.34 C6.495,65.331 6.517,65.207 6.535,65.141 C6.561,64.969 6.589,64.381 6.601,64.248 C6.64,63.876 6.707,63.732 6.709,63.611 C6.709,63.537 6.674,63.434 6.565,63.43" id="Fill-7" fill="#8A8B8A"></path>
            <path d="M14.002,69.24 C14.002,69.24 14.002,69.24 14.002,69.238 L15.188,65.605 C15.202,65.562 15.217,65.529 15.227,65.511 C15.238,65.529 15.253,65.562 15.269,65.605 L16.544,69.23 L16.544,69.24 L14.002,69.24 L14.002,69.24 Z M20.564,73.498 C20.432,73.498 20.239,73.482 20.048,73.419 C19.784,73.343 19.415,73.155 18.931,71.966 C18.113,69.926 16.006,64.381 15.804,63.869 C15.644,63.464 15.591,63.356 15.448,63.348 C15.299,63.362 15.259,63.479 15.093,63.912 L12.047,72.249 C11.804,72.922 11.55,73.396 10.971,73.47 C10.867,73.482 10.679,73.498 10.589,73.498 C10.512,73.498 10.407,73.531 10.405,73.641 C10.413,73.785 10.554,73.811 10.725,73.811 C11.356,73.811 12.098,73.771 12.241,73.771 C12.382,73.771 12.963,73.811 13.288,73.811 C13.408,73.811 13.548,73.782 13.553,73.641 C13.553,73.541 13.453,73.498 13.354,73.498 L13.221,73.498 C13.007,73.495 12.774,73.387 12.774,73.172 C12.774,72.939 12.84,72.623 12.957,72.291 L13.765,69.914 C13.787,69.863 13.801,69.854 13.839,69.852 L16.724,69.852 C16.774,69.856 16.759,69.852 16.789,69.895 L18.036,73.193 C18.055,73.25 18.063,73.295 18.063,73.332 C18.063,73.426 18.019,73.463 17.99,73.473 C17.936,73.482 17.855,73.535 17.855,73.628 C17.899,73.811 18.076,73.757 18.32,73.785 C19.248,73.811 20.229,73.811 20.431,73.811 C20.576,73.808 20.741,73.804 20.763,73.641 C20.763,73.52 20.64,73.498 20.564,73.498 L20.564,73.498 Z" id="Fill-8" fill="#8A8B8A"></path>
            <path d="M38.297,73.498 C38.162,73.498 37.821,73.495 37.442,73.379 C36.915,73.215 36.812,72.496 36.762,72.01 L35.862,63.768 C35.833,63.52 35.802,63.36 35.638,63.348 C35.491,63.354 35.433,63.484 35.378,63.6 L31.488,71.908 L27.439,63.584 C27.374,63.436 27.298,63.346 27.181,63.348 C27.038,63.356 26.983,63.492 26.97,63.648 L26.002,72.398 C25.949,72.92 25.898,73.396 25.516,73.455 C25.317,73.498 25.233,73.498 25.127,73.498 C25.048,73.502 24.947,73.51 24.929,73.628 C24.934,73.783 25.089,73.811 25.22,73.811 C25.585,73.811 26.233,73.771 26.349,73.771 C26.448,73.771 27.096,73.811 27.595,73.811 C27.75,73.811 27.897,73.777 27.901,73.628 C27.891,73.522 27.8,73.498 27.731,73.498 C27.655,73.498 27.456,73.482 27.235,73.432 C27.06,73.396 26.934,73.246 26.934,73.077 C26.934,72.849 26.934,72.609 26.949,72.398 L27.471,66.313 C27.782,67.018 29.078,69.79 29.19,70.019 C29.257,70.149 30.412,72.475 30.762,73.132 C31.023,73.609 31.063,73.762 31.234,73.785 C31.426,73.766 31.451,73.617 31.734,73.037 L34.957,66.195 L35.588,72.961 C35.596,73.037 35.6,73.109 35.6,73.174 C35.6,73.244 35.593,73.305 35.586,73.343 C35.582,73.359 35.575,73.371 35.574,73.379 C35.5,73.39 35.433,73.455 35.439,73.535 C35.451,73.67 35.574,73.705 35.873,73.729 C36.375,73.771 37.823,73.811 38.12,73.811 C38.284,73.808 38.448,73.785 38.467,73.628 C38.467,73.525 38.36,73.498 38.297,73.498" id="Fill-9" fill="#8A8B8A"></path>
            <path d="M46.884,73.498 C46.768,73.498 46.472,73.47 46.289,73.444 C45.927,73.392 45.866,73.152 45.819,72.762 C45.751,72.205 45.751,71.141 45.751,69.856 L45.751,67.49 C45.751,65.398 45.751,65.023 45.779,64.596 C45.814,64.127 45.894,63.956 46.223,63.891 C46.384,63.863 46.46,63.851 46.548,63.851 C46.616,63.851 46.717,63.813 46.718,63.705 C46.717,63.569 46.583,63.537 46.44,63.537 C46.035,63.537 45.188,63.574 45.125,63.574 C45.062,63.574 44.213,63.537 43.768,63.537 C43.627,63.537 43.49,63.569 43.49,63.705 C43.494,63.813 43.591,63.851 43.663,63.851 C43.75,63.851 43.921,63.863 44.06,63.901 C44.324,63.967 44.437,64.145 44.471,64.596 C44.497,65.023 44.497,65.398 44.497,67.49 L44.497,69.856 C44.497,71.141 44.497,72.205 44.429,72.762 C44.376,73.152 44.306,73.408 44.09,73.444 C43.973,73.47 43.814,73.498 43.702,73.498 C43.599,73.498 43.53,73.568 43.53,73.641 C43.532,73.775 43.667,73.811 43.81,73.811 C44.213,73.811 45.062,73.771 45.125,73.771 C45.188,73.771 46.035,73.811 46.776,73.811 C46.925,73.811 47.049,73.768 47.054,73.641 C47.054,73.568 46.986,73.498 46.884,73.498" id="Fill-10" fill="#8A8B8A"></path>
            <path d="M59.516,71.818 C59.385,71.818 59.341,71.943 59.331,72.049 C59.296,72.287 59.163,72.619 58.997,72.821 C58.706,73.18 58.136,73.201 57.422,73.201 C56.375,73.201 56.047,73.104 55.855,72.91 C55.648,72.721 55.574,71.85 55.579,69.881 L55.579,67.49 C55.579,65.398 55.579,65.021 55.605,64.596 C55.642,64.127 55.718,63.959 56.077,63.891 C56.234,63.863 56.422,63.851 56.508,63.851 C56.577,63.851 56.676,63.813 56.68,63.705 C56.678,63.569 56.544,63.537 56.404,63.537 C55.997,63.537 55.013,63.574 54.951,63.574 C54.89,63.574 54.039,63.537 53.435,63.537 C53.292,63.537 53.158,63.569 53.158,63.705 C53.159,63.813 53.259,63.851 53.328,63.851 C53.442,63.851 53.673,63.865 53.769,63.887 C54.19,63.986 54.261,64.143 54.298,64.596 C54.324,65.021 54.324,65.398 54.324,67.49 L54.324,69.856 C54.324,71.141 54.324,72.205 54.259,72.762 C54.204,73.152 54.134,73.408 53.92,73.444 C53.799,73.472 53.64,73.498 53.527,73.498 C53.425,73.498 53.356,73.568 53.356,73.641 C53.359,73.777 53.493,73.811 53.636,73.811 C53.84,73.811 54.136,73.797 54.404,73.785 C54.672,73.785 54.902,73.771 54.951,73.771 C55.341,73.771 55.754,73.785 56.317,73.811 C56.883,73.826 57.583,73.854 58.549,73.854 C58.597,73.854 58.643,73.855 58.685,73.855 C59.264,73.855 59.379,73.748 59.457,73.444 C59.567,73.041 59.659,72.246 59.659,72.086 C59.659,71.947 59.645,71.82 59.516,71.818" id="Fill-11" fill="#8A8B8A"></path>
            <path d="M72.185,63.537 C71.928,63.537 70.959,63.574 70.882,63.574 C70.782,63.574 70.348,63.537 69.998,63.537 C69.863,63.542 69.74,63.545 69.718,63.68 C69.732,63.814 69.853,63.832 69.963,63.873 C70.088,63.905 70.13,64.009 70.136,64.19 C70.136,64.352 70.085,64.566 69.918,64.84 C69.66,65.264 68.114,67.926 67.734,68.689 C67.324,68.002 65.526,64.911 65.326,64.549 C65.221,64.348 65.159,64.197 65.159,64.058 C65.163,63.978 65.206,63.92 65.299,63.869 C65.402,63.814 65.512,63.828 65.537,63.693 C65.537,63.602 65.446,63.537 65.297,63.537 C64.774,63.537 64.256,63.574 64.171,63.574 C64.105,63.574 63.098,63.537 62.842,63.537 C62.714,63.537 62.605,63.584 62.604,63.693 C62.606,63.814 62.723,63.851 62.802,63.851 C62.898,63.849 63.156,63.927 63.343,64.055 C63.573,64.207 63.908,64.537 64.238,65.031 C64.705,65.721 66.51,68.686 66.594,68.885 C66.77,69.277 66.897,69.552 66.901,70.271 L66.901,71.424 C66.901,71.639 66.901,72.202 66.859,72.766 C66.834,73.146 66.714,73.404 66.494,73.444 C66.376,73.47 66.216,73.498 66.104,73.498 C66.004,73.498 65.933,73.568 65.933,73.641 C65.933,73.775 66.067,73.811 66.212,73.811 C66.616,73.811 67.464,73.771 67.526,73.771 C67.589,73.771 68.437,73.811 69.179,73.811 C69.329,73.811 69.453,73.768 69.456,73.641 C69.456,73.568 69.388,73.498 69.284,73.498 C69.173,73.498 68.875,73.47 68.69,73.444 C68.323,73.392 68.225,73.146 68.192,72.766 C68.152,72.202 68.152,71.639 68.152,71.424 L68.152,70.271 C68.152,69.826 68.152,69.423 68.352,68.955 C68.585,68.392 70.47,65.223 70.904,64.701 C71.2,64.336 71.338,64.186 71.6,64.029 C71.801,63.901 72.054,63.851 72.185,63.851 C72.303,63.851 72.421,63.8 72.422,63.68 C72.404,63.547 72.283,63.542 72.185,63.537" id="Fill-12" fill="#8A8B8A"></path>
            <path d="M97.685,73.498 C97.553,73.498 97.213,73.495 96.831,73.379 C96.309,73.215 96.203,72.496 96.15,72.01 L95.253,63.768 C95.226,63.52 95.193,63.36 95.03,63.348 C94.881,63.354 94.823,63.484 94.769,63.6 L90.878,71.908 L86.829,63.584 C86.766,63.436 86.689,63.346 86.569,63.348 C86.432,63.356 86.373,63.492 86.362,63.648 L85.395,72.398 C85.342,72.92 85.291,73.396 84.909,73.455 C84.706,73.498 84.624,73.498 84.517,73.498 C84.439,73.502 84.339,73.51 84.317,73.628 C84.325,73.783 84.479,73.811 84.611,73.811 C84.975,73.811 85.625,73.771 85.737,73.771 C85.839,73.771 86.489,73.811 86.985,73.811 C87.142,73.811 87.288,73.777 87.292,73.628 C87.283,73.522 87.188,73.498 87.124,73.498 C87.049,73.498 86.847,73.482 86.624,73.432 C86.45,73.396 86.324,73.246 86.324,73.077 C86.324,72.849 86.324,72.609 86.341,72.398 L86.864,66.317 C87.178,67.029 88.47,69.791 88.582,70.019 C88.647,70.149 89.804,72.475 90.153,73.132 C90.417,73.609 90.452,73.762 90.624,73.785 C90.815,73.766 90.841,73.617 91.125,73.037 L94.351,66.191 L94.979,72.961 C94.986,73.037 94.989,73.109 94.989,73.174 C94.989,73.244 94.982,73.305 94.976,73.343 C94.972,73.359 94.968,73.371 94.964,73.379 C94.892,73.39 94.823,73.455 94.828,73.535 C94.845,73.67 94.964,73.705 95.266,73.729 C95.765,73.771 97.213,73.811 97.511,73.811 C97.676,73.808 97.839,73.785 97.857,73.628 C97.857,73.525 97.753,73.498 97.685,73.498" id="Fill-13" fill="#8A8B8A"></path>
            <path d="M111.885,63.537 C111.481,63.537 110.846,63.574 110.759,63.574 C110.685,63.574 109.941,63.537 109.335,63.537 C109.193,63.537 109.059,63.569 109.056,63.705 C109.059,63.811 109.157,63.849 109.229,63.849 C109.344,63.849 109.574,63.863 109.669,63.891 C110.091,63.986 110.163,64.145 110.196,64.596 C110.225,65.021 110.225,65.398 110.225,67.494 L110.225,69.17 C110.225,70.549 110.062,71.676 109.458,72.418 C108.991,72.979 108.2,73.361 107.402,73.361 C106.642,73.361 106.065,73.248 105.419,72.642 C104.856,72.104 104.433,71.297 104.431,69.37 L104.431,67.494 C104.431,65.398 104.431,65.021 104.458,64.596 C104.491,64.127 104.576,63.941 104.903,63.891 C105.064,63.861 105.14,63.849 105.228,63.849 C105.297,63.849 105.396,63.811 105.397,63.705 C105.397,63.569 105.261,63.537 105.119,63.537 C104.714,63.537 103.907,63.574 103.792,63.574 C103.675,63.574 102.851,63.537 102.247,63.537 C102.106,63.537 101.972,63.569 101.968,63.705 C101.972,63.811 102.069,63.849 102.139,63.849 C102.253,63.849 102.485,63.863 102.578,63.891 C103.003,63.986 103.074,64.145 103.11,64.596 C103.136,65.021 103.136,65.398 103.136,67.494 L103.136,69.452 C103.136,71.421 103.653,72.385 104.323,73.028 C105.301,73.949 106.672,73.998 107.134,73.998 L107.147,73.998 C107.945,73.998 108.964,73.856 109.941,72.99 C111.042,72.014 111.196,70.382 111.196,68.93 L111.196,67.494 C111.196,65.398 111.196,65.021 111.224,64.596 C111.26,64.131 111.337,63.969 111.673,63.891 C111.83,63.861 111.907,63.849 111.99,63.849 C112.062,63.849 112.161,63.811 112.165,63.705 C112.165,63.569 112.026,63.537 111.885,63.537" id="Fill-14" fill="#8A8B8A"></path>
            <path d="M121.064,67.939 L120.688,67.645 C119.4,66.633 119.075,66.178 119.073,65.437 C119.077,64.494 119.761,63.949 120.661,63.941 C121.878,63.945 122.208,64.49 122.283,64.621 C122.355,64.752 122.438,65.119 122.45,65.268 C122.459,65.365 122.484,65.5 122.621,65.502 C122.771,65.48 122.775,65.336 122.778,65.129 C122.778,64.216 122.833,63.785 122.833,63.705 C122.833,63.615 122.744,63.549 122.638,63.549 C122.536,63.549 122.433,63.537 122.18,63.484 C121.842,63.4 121.446,63.348 120.919,63.348 C119.188,63.35 118.078,64.353 118.075,65.826 C118.071,66.757 118.413,67.617 119.842,68.789 L120.446,69.285 C121.603,70.24 121.966,70.75 121.969,71.653 C121.966,72.481 121.368,73.373 120.108,73.375 C119.226,73.371 118.38,73.012 118.188,72.059 C118.147,71.875 118.147,71.693 118.147,71.574 C118.147,71.472 118.107,71.363 117.989,71.363 C117.86,71.37 117.829,71.494 117.82,71.635 C117.808,71.85 117.753,72.389 117.753,73.064 C117.74,73.414 117.784,73.537 117.987,73.629 C118.554,73.904 119.179,74 119.814,74 C120.552,74 121.29,73.836 121.878,73.426 C122.829,72.748 123.048,71.708 123.048,71.141 C123.052,70.051 122.653,69.187 121.064,67.939" id="Fill-15" fill="#8A8B8A"></path>
            <path d="M134.984,71.873 C134.862,71.875 134.824,71.984 134.799,72.125 C134.704,72.67 134.56,72.902 134.232,73.045 C133.905,73.186 133.317,73.188 132.968,73.188 C131.649,73.164 131.537,73.059 131.476,72.147 C131.472,72.057 131.47,71.82 131.47,71.533 C131.47,70.952 131.476,70.158 131.476,69.856 L131.476,68.675 C131.484,68.641 131.47,68.649 131.506,68.643 C131.733,68.643 133.064,68.67 133.421,68.709 C133.924,68.77 134.007,68.962 134.065,69.133 C134.114,69.299 134.114,69.423 134.114,69.56 C134.114,69.637 134.159,69.744 134.272,69.744 C134.458,69.713 134.421,69.52 134.431,69.425 C134.431,69.338 134.458,68.838 134.483,68.572 C134.522,68.13 134.589,67.918 134.591,67.815 C134.591,67.727 134.541,67.643 134.462,67.643 C134.349,67.654 134.309,67.736 134.21,67.84 C134.114,67.948 133.945,67.981 133.622,68.006 C133.321,68.031 131.668,68.033 131.493,68.033 C131.476,68.024 131.489,68.033 131.476,67.963 L131.476,64.258 C131.484,64.186 131.484,64.188 131.493,64.186 C131.637,64.186 133.108,64.199 133.324,64.227 C134.047,64.312 134.136,64.45 134.229,64.643 C134.287,64.788 134.302,65.015 134.302,65.103 C134.302,65.209 134.341,65.34 134.472,65.34 C134.599,65.322 134.61,65.207 134.63,65.141 C134.657,64.969 134.685,64.381 134.697,64.25 C134.737,63.876 134.803,63.73 134.807,63.615 C134.803,63.547 134.807,63.443 134.688,63.43 C134.587,63.434 134.53,63.492 134.487,63.496 C134.385,63.52 134.173,63.549 133.92,63.563 C133.616,63.578 130.941,63.578 130.849,63.578 L130.302,63.549 C130.004,63.537 129.641,63.537 129.332,63.537 C129.187,63.537 129.056,63.569 129.052,63.705 C129.06,63.811 129.155,63.851 129.225,63.851 C129.339,63.851 129.571,63.863 129.666,63.891 C130.088,63.986 130.16,64.145 130.196,64.596 C130.22,65.021 130.22,65.398 130.22,67.494 L130.22,69.856 C130.22,71.141 130.22,72.203 130.157,72.762 C130.103,73.152 130.033,73.408 129.817,73.444 C129.695,73.472 129.537,73.498 129.427,73.498 C129.323,73.498 129.256,73.568 129.256,73.641 C129.256,73.777 129.39,73.811 129.532,73.811 C129.739,73.811 130.048,73.783 130.312,73.783 C130.597,73.771 130.823,73.771 130.849,73.771 C131.048,73.771 131.37,73.783 131.896,73.811 C132.42,73.826 133.157,73.852 134.165,73.852 C134.222,73.854 134.272,73.855 134.319,73.855 C134.712,73.855 134.872,73.789 134.952,73.455 C135.021,73.159 135.128,72.26 135.128,72.137 C135.124,72.057 135.147,71.893 134.984,71.873" id="Fill-16" fill="#8A8B8A"></path>
            <path d="M150.14,63.537 C149.732,63.537 149.095,63.574 149.01,63.574 C148.935,63.574 148.192,63.537 147.586,63.537 C147.444,63.537 147.31,63.569 147.31,63.705 C147.31,63.811 147.409,63.849 147.48,63.849 C147.595,63.849 147.825,63.863 147.92,63.891 C148.343,63.986 148.414,64.145 148.45,64.596 C148.476,65.021 148.476,65.398 148.476,67.494 L148.476,69.17 C148.476,70.549 148.313,71.676 147.713,72.418 C147.244,72.979 146.452,73.361 145.653,73.361 C144.894,73.361 144.316,73.248 143.67,72.642 C143.106,72.104 142.686,71.297 142.682,69.37 L142.682,67.494 C142.682,65.398 142.682,65.021 142.711,64.596 C142.743,64.127 142.827,63.941 143.152,63.891 C143.313,63.861 143.392,63.849 143.478,63.849 C143.546,63.849 143.646,63.811 143.651,63.705 C143.647,63.569 143.514,63.537 143.372,63.537 C142.965,63.537 142.159,63.574 142.042,63.574 C141.927,63.574 141.102,63.537 140.499,63.537 C140.356,63.537 140.223,63.569 140.219,63.705 C140.223,63.811 140.32,63.849 140.392,63.849 C140.506,63.849 140.738,63.863 140.831,63.891 C141.254,63.986 141.327,64.145 141.363,64.596 C141.391,65.021 141.391,65.398 141.391,67.494 L141.391,69.452 C141.387,71.421 141.904,72.385 142.576,73.028 C143.552,73.949 144.923,73.998 145.384,73.998 L145.399,73.998 C146.196,73.998 147.219,73.856 148.192,72.99 C149.293,72.014 149.449,70.382 149.449,68.93 L149.449,67.494 C149.449,65.398 149.449,65.021 149.475,64.596 C149.511,64.131 149.591,63.969 149.923,63.891 C150.081,63.861 150.157,63.849 150.245,63.849 C150.313,63.849 150.412,63.811 150.415,63.705 C150.415,63.569 150.281,63.537 150.14,63.537" id="Fill-17" fill="#8A8B8A"></path>
            <path d="M168.499,73.498 C168.366,73.498 168.026,73.495 167.645,73.379 C167.12,73.215 167.013,72.496 166.962,72.01 L166.064,63.768 C166.036,63.52 166.007,63.36 165.839,63.348 C165.694,63.354 165.636,63.484 165.581,63.6 L161.69,71.908 L157.641,63.584 C157.579,63.436 157.503,63.346 157.383,63.348 C157.241,63.356 157.187,63.492 157.172,63.648 L156.208,72.398 C156.153,72.92 156.101,73.396 155.719,73.455 C155.522,73.498 155.436,73.498 155.33,73.498 C155.251,73.502 155.152,73.51 155.131,73.628 C155.138,73.783 155.29,73.811 155.425,73.811 C155.788,73.811 156.438,73.771 156.551,73.771 C156.652,73.771 157.3,73.811 157.801,73.811 C157.955,73.811 158.103,73.777 158.105,73.628 C158.095,73.522 158.002,73.498 157.935,73.498 C157.86,73.498 157.659,73.482 157.438,73.432 C157.263,73.396 157.136,73.246 157.14,73.077 C157.14,72.849 157.14,72.609 157.15,72.398 L157.675,66.317 C157.989,67.025 159.278,69.791 159.396,70.019 C159.46,70.149 160.616,72.475 160.966,73.132 C161.226,73.609 161.267,73.762 161.437,73.785 C161.63,73.766 161.655,73.617 161.937,73.037 L165.163,66.191 L165.79,72.961 C165.8,73.037 165.804,73.109 165.804,73.174 C165.804,73.244 165.8,73.305 165.79,73.343 C165.785,73.359 165.781,73.371 165.777,73.379 C165.705,73.39 165.636,73.455 165.642,73.535 C165.657,73.67 165.777,73.705 166.075,73.729 C166.577,73.771 168.026,73.811 168.324,73.811 C168.487,73.808 168.651,73.785 168.669,73.628 C168.669,73.525 168.563,73.498 168.499,73.498" id="Fill-18" fill="#8A8B8A"></path>
            <path d="M48.208,51.465 C48.208,55.234 48.269,56.769 48.751,57.221 C49.173,57.643 50.197,57.824 52.275,57.824 C53.662,57.824 54.837,57.791 55.468,57.039 C55.801,56.648 56.011,56.106 56.102,55.594 C56.133,55.412 56.222,55.264 56.372,55.264 C56.493,55.264 56.555,55.383 56.555,55.654 C56.555,55.924 56.372,57.461 56.162,58.213 C55.982,58.816 55.892,58.906 54.475,58.906 C52.578,58.906 51.101,58.877 49.865,58.816 C48.662,58.787 47.756,58.758 46.975,58.758 C46.854,58.758 46.402,58.758 45.888,58.787 C45.348,58.816 44.774,58.847 44.353,58.847 C44.082,58.847 43.931,58.787 43.931,58.635 C43.931,58.547 43.993,58.428 44.143,58.428 C44.383,58.428 44.715,58.365 44.957,58.304 C45.467,58.184 45.528,57.701 45.648,56.949 C45.799,55.896 45.799,53.879 45.799,51.405 L45.799,46.891 C45.799,42.911 45.799,42.188 45.738,41.376 C45.679,40.502 45.528,40.081 44.655,39.959 C44.443,39.93 43.993,39.899 43.752,39.899 C43.661,39.899 43.54,39.781 43.54,39.687 C43.54,39.538 43.661,39.48 43.961,39.48 C45.167,39.48 46.824,39.538 46.975,39.538 C47.093,39.538 49.083,39.48 49.895,39.48 C50.166,39.48 50.316,39.538 50.316,39.687 C50.316,39.781 50.197,39.869 50.106,39.869 C49.926,39.869 49.535,39.899 49.234,39.93 C48.45,40.081 48.3,40.471 48.24,41.376 C48.208,42.188 48.208,42.911 48.208,46.891 L48.208,51.465" id="Fill-19" fill="#1A1918"></path>
            <path d="M48.208,51.465 C48.208,55.234 48.269,56.769 48.751,57.221 C49.173,57.643 50.197,57.824 52.275,57.824 C53.662,57.824 54.837,57.791 55.468,57.039 C55.801,56.648 56.011,56.106 56.102,55.594 C56.133,55.412 56.222,55.264 56.372,55.264 C56.493,55.264 56.555,55.383 56.555,55.654 C56.555,55.924 56.372,57.461 56.162,58.213 C55.982,58.816 55.892,58.906 54.475,58.906 C52.578,58.906 51.101,58.877 49.865,58.816 C48.662,58.787 47.756,58.758 46.975,58.758 C46.854,58.758 46.402,58.758 45.888,58.787 C45.348,58.816 44.774,58.847 44.353,58.847 C44.082,58.847 43.931,58.787 43.931,58.635 C43.931,58.547 43.993,58.428 44.143,58.428 C44.383,58.428 44.715,58.365 44.957,58.304 C45.467,58.184 45.528,57.701 45.648,56.949 C45.799,55.896 45.799,53.879 45.799,51.405 L45.799,46.891 C45.799,42.911 45.799,42.188 45.738,41.376 C45.679,40.502 45.528,40.081 44.655,39.959 C44.443,39.93 43.993,39.899 43.752,39.899 C43.661,39.899 43.54,39.781 43.54,39.687 C43.54,39.538 43.661,39.48 43.961,39.48 C45.167,39.48 46.824,39.538 46.975,39.538 C47.093,39.538 49.083,39.48 49.895,39.48 C50.166,39.48 50.316,39.538 50.316,39.687 C50.316,39.781 50.197,39.869 50.106,39.869 C49.926,39.869 49.535,39.899 49.234,39.93 C48.45,40.081 48.3,40.471 48.24,41.376 C48.208,42.188 48.208,42.911 48.208,46.891 L48.208,51.465 L48.208,51.465 Z" id="Stroke-20" stroke="#1A1918" stroke-width="0.25"></path>
            <path d="M67.437,49.658 C67.437,52.37 67.437,54.749 67.468,55.234 C67.498,55.866 67.557,56.8 67.768,57.07 C68.098,57.552 69.035,58.095 72.166,58.095 C74.607,58.095 76.776,57.283 78.371,55.775 C79.758,54.478 80.45,52.041 80.45,49.691 C80.45,46.434 79.034,44.358 77.949,43.272 C75.45,40.744 72.529,40.413 69.366,40.413 C68.854,40.413 68.011,40.502 67.768,40.591 C67.527,40.684 67.437,40.802 67.437,41.105 L67.437,49.658 L67.437,49.658 Z M65.026,46.891 C65.026,42.911 65.026,42.188 64.967,41.376 C64.908,40.502 64.756,40.081 63.88,39.959 C63.673,39.93 63.22,39.899 62.979,39.899 C62.89,39.899 62.769,39.781 62.769,39.687 C62.769,39.538 62.89,39.48 63.188,39.48 C64.396,39.48 66.113,39.538 66.262,39.538 C66.565,39.538 68.251,39.48 69.816,39.48 C72.468,39.48 77.317,39.236 80.45,42.398 C81.776,43.726 83.042,45.863 83.042,48.906 C83.042,52.131 81.654,54.602 80.18,56.106 C79.034,57.283 76.656,59.059 72.137,59.059 C70.991,59.059 69.576,58.965 68.432,58.906 C67.286,58.816 66.383,58.758 66.262,58.758 C66.202,58.758 65.72,58.787 65.177,58.787 C64.636,58.816 64.004,58.847 63.582,58.847 C63.31,58.847 63.16,58.787 63.16,58.635 C63.16,58.547 63.22,58.428 63.37,58.428 C63.61,58.428 63.944,58.365 64.186,58.304 C64.696,58.184 64.756,57.701 64.877,56.949 C65.026,55.896 65.026,53.879 65.026,51.405 L65.026,46.891 L65.026,46.891 Z" id="Fill-21" fill="#1A1918"></path>
            <path d="M67.437,49.658 C67.437,52.37 67.437,54.749 67.468,55.234 C67.498,55.866 67.557,56.8 67.768,57.07 C68.098,57.552 69.035,58.095 72.166,58.095 C74.607,58.095 76.776,57.283 78.371,55.775 C79.758,54.478 80.45,52.041 80.45,49.691 C80.45,46.434 79.034,44.358 77.949,43.272 C75.45,40.744 72.529,40.413 69.366,40.413 C68.854,40.413 68.011,40.502 67.768,40.591 C67.527,40.684 67.437,40.802 67.437,41.105 L67.437,49.658 L67.437,49.658 Z M65.026,46.891 C65.026,42.911 65.026,42.188 64.967,41.376 C64.908,40.502 64.756,40.081 63.88,39.959 C63.673,39.93 63.22,39.899 62.979,39.899 C62.89,39.899 62.769,39.781 62.769,39.687 C62.769,39.538 62.89,39.48 63.188,39.48 C64.396,39.48 66.113,39.538 66.262,39.538 C66.565,39.538 68.251,39.48 69.816,39.48 C72.468,39.48 77.317,39.236 80.45,42.398 C81.776,43.726 83.042,45.863 83.042,48.906 C83.042,52.131 81.654,54.602 80.18,56.106 C79.034,57.283 76.656,59.059 72.137,59.059 C70.991,59.059 69.576,58.965 68.432,58.906 C67.286,58.816 66.383,58.758 66.262,58.758 C66.202,58.758 65.72,58.787 65.177,58.787 C64.636,58.816 64.004,58.847 63.582,58.847 C63.31,58.847 63.16,58.787 63.16,58.635 C63.16,58.547 63.22,58.428 63.37,58.428 C63.61,58.428 63.944,58.365 64.186,58.304 C64.696,58.184 64.756,57.701 64.877,56.949 C65.026,55.896 65.026,53.879 65.026,51.405 L65.026,46.891 L65.026,46.891 Z" id="Stroke-22" stroke="#1A1918" stroke-width="0.25"></path>
            <path d="M111.892,55.535 C111.983,56.438 112.165,57.824 113.247,58.184 C114.001,58.428 114.692,58.428 114.966,58.428 C115.085,58.428 115.176,58.485 115.176,58.605 C115.176,58.758 114.937,58.847 114.633,58.847 C114.032,58.847 111.078,58.787 110.116,58.697 C109.483,58.635 109.362,58.547 109.362,58.428 C109.362,58.334 109.422,58.244 109.542,58.213 C109.694,58.184 109.724,57.791 109.661,57.312 L108.397,44.358 L108.339,44.358 L101.95,57.432 C101.41,58.547 101.26,58.787 101.019,58.787 C100.776,58.787 100.624,58.547 100.115,57.613 C99.421,56.346 97.675,53.064 97.01,51.678 C96.229,50.051 94.089,45.742 93.637,44.689 L93.519,44.689 L92.494,56.257 C92.462,56.648 92.462,57.131 92.462,57.552 C92.462,57.944 92.705,58.184 93.097,58.274 C93.548,58.398 93.94,58.428 94.122,58.428 C94.209,58.428 94.329,58.516 94.329,58.605 C94.329,58.787 94.149,58.847 93.849,58.847 C92.854,58.847 91.59,58.758 91.377,58.758 C91.138,58.758 89.872,58.847 89.148,58.847 C88.878,58.847 88.698,58.787 88.698,58.605 C88.698,58.516 88.817,58.428 88.967,58.428 C89.18,58.428 89.361,58.398 89.751,58.334 C90.625,58.184 90.656,57.25 90.776,56.287 L92.705,39.567 C92.733,39.298 92.854,39.117 93.007,39.117 C93.185,39.117 93.397,39.207 93.548,39.509 L101.562,55.412 L109.272,39.538 C109.392,39.298 109.513,39.117 109.694,39.117 C109.874,39.117 110.024,39.327 110.087,39.811 L111.892,55.535" id="Fill-23" fill="#1A1918"></path>
            <path d="M111.892,55.535 C111.983,56.438 112.165,57.824 113.247,58.184 C114.001,58.428 114.692,58.428 114.966,58.428 C115.085,58.428 115.176,58.485 115.176,58.605 C115.176,58.758 114.937,58.847 114.633,58.847 C114.032,58.847 111.078,58.787 110.116,58.697 C109.483,58.635 109.362,58.547 109.362,58.428 C109.362,58.334 109.422,58.244 109.542,58.213 C109.694,58.184 109.724,57.791 109.661,57.312 L108.397,44.358 L108.339,44.358 L101.95,57.432 C101.41,58.547 101.26,58.787 101.019,58.787 C100.776,58.787 100.624,58.547 100.115,57.613 C99.421,56.346 97.675,53.064 97.01,51.678 C96.229,50.051 94.089,45.742 93.637,44.689 L93.519,44.689 L92.494,56.257 C92.462,56.648 92.462,57.131 92.462,57.552 C92.462,57.944 92.705,58.184 93.097,58.274 C93.548,58.398 93.94,58.428 94.122,58.428 C94.209,58.428 94.329,58.516 94.329,58.605 C94.329,58.787 94.149,58.847 93.849,58.847 C92.854,58.847 91.59,58.758 91.377,58.758 C91.138,58.758 89.872,58.847 89.148,58.847 C88.878,58.847 88.698,58.787 88.698,58.605 C88.698,58.516 88.817,58.428 88.967,58.428 C89.18,58.428 89.361,58.398 89.751,58.334 C90.625,58.184 90.656,57.25 90.776,56.287 L92.705,39.567 C92.733,39.298 92.854,39.117 93.007,39.117 C93.185,39.117 93.397,39.207 93.548,39.509 L101.562,55.412 L109.272,39.538 C109.392,39.298 109.513,39.117 109.694,39.117 C109.874,39.117 110.024,39.327 110.087,39.811 L111.892,55.535 L111.892,55.535 Z" id="Stroke-24" stroke="#1A1918" stroke-width="0.25"></path>
            <path d="M133.168,50.653 C133.288,50.653 133.288,50.592 133.255,50.474 L130.636,43.454 C130.487,43.065 130.339,43.065 130.186,43.454 L127.716,50.474 C127.685,50.592 127.716,50.653 127.807,50.653 L133.168,50.653 L133.168,50.653 Z M130.215,39.99 C130.546,39.147 130.669,38.995 130.847,38.995 C131.119,38.995 131.21,39.356 131.479,39.93 C131.962,41.016 136.208,51.587 137.836,55.475 C138.8,57.763 139.524,58.095 140.095,58.274 C140.487,58.398 140.88,58.428 141.15,58.428 C141.302,58.428 141.483,58.485 141.483,58.635 C141.483,58.787 141.18,58.847 140.88,58.847 C140.487,58.847 138.53,58.847 136.691,58.787 C136.18,58.758 135.758,58.758 135.758,58.605 C135.758,58.485 135.817,58.485 135.939,58.428 C136.089,58.365 136.361,58.154 136.18,57.733 L133.8,51.859 C133.742,51.738 133.71,51.709 133.559,51.709 L127.443,51.709 C127.323,51.709 127.232,51.769 127.173,51.918 L125.667,56.016 C125.425,56.648 125.274,57.283 125.274,57.733 C125.274,58.244 125.729,58.428 126.179,58.428 L126.421,58.428 C126.63,58.428 126.691,58.516 126.691,58.635 C126.691,58.787 126.542,58.847 126.299,58.847 C125.667,58.847 124.222,58.758 123.919,58.758 C123.647,58.758 122.323,58.847 121.239,58.847 C120.908,58.847 120.727,58.787 120.727,58.635 C120.727,58.516 120.847,58.428 120.968,58.428 C121.147,58.428 121.54,58.398 121.751,58.365 C122.953,58.213 123.468,57.312 123.979,56.016 L130.215,39.99 L130.215,39.99 Z" id="Fill-25" fill="#1A1918"></path>
            <path d="M133.168,50.653 C133.288,50.653 133.288,50.592 133.255,50.474 L130.636,43.454 C130.487,43.065 130.339,43.065 130.186,43.454 L127.716,50.474 C127.685,50.592 127.716,50.653 127.807,50.653 L133.168,50.653 L133.168,50.653 Z M130.215,39.99 C130.546,39.147 130.669,38.995 130.847,38.995 C131.119,38.995 131.21,39.356 131.479,39.93 C131.962,41.016 136.208,51.587 137.836,55.475 C138.8,57.763 139.524,58.095 140.095,58.274 C140.487,58.398 140.88,58.428 141.15,58.428 C141.302,58.428 141.483,58.485 141.483,58.635 C141.483,58.787 141.18,58.847 140.88,58.847 C140.487,58.847 138.53,58.847 136.691,58.787 C136.18,58.758 135.758,58.758 135.758,58.605 C135.758,58.485 135.817,58.485 135.939,58.428 C136.089,58.365 136.361,58.154 136.18,57.733 L133.8,51.859 C133.742,51.738 133.71,51.709 133.559,51.709 L127.443,51.709 C127.323,51.709 127.232,51.769 127.173,51.918 L125.667,56.016 C125.425,56.648 125.274,57.283 125.274,57.733 C125.274,58.244 125.729,58.428 126.179,58.428 L126.421,58.428 C126.63,58.428 126.691,58.516 126.691,58.635 C126.691,58.787 126.542,58.847 126.299,58.847 C125.667,58.847 124.222,58.758 123.919,58.758 C123.647,58.758 122.323,58.847 121.239,58.847 C120.908,58.847 120.727,58.787 120.727,58.635 C120.727,58.516 120.847,58.428 120.968,58.428 C121.147,58.428 121.54,58.398 121.751,58.365 C122.953,58.213 123.468,57.312 123.979,56.016 L130.215,39.99 L130.215,39.99 Z" id="Stroke-26" stroke="#1A1918" stroke-width="0.25"></path>
            <path d="M168.614,39.48 C167.532,39.48 166.659,39.538 166.358,39.538 C166.058,39.538 164.793,39.48 163.585,39.48 C163.286,39.48 163.073,39.509 163.073,39.658 C163.073,39.75 163.104,39.899 163.286,39.899 C163.495,39.899 164.1,39.93 164.579,40.018 C165.393,40.172 165.545,40.744 165.574,42.398 L165.845,55.234 C165.033,54.39 162.2,51.348 159.581,48.634 C159.556,48.611 159.537,48.59 159.512,48.566 L159.512,52.049 C162.023,54.613 164.717,57.262 164.942,57.461 C166.417,58.816 166.689,59.028 166.958,59.028 C167.14,59.028 167.169,58.877 167.169,57.192 L167.23,42.188 C167.23,40.651 167.292,40.141 168.166,39.959 C168.466,39.899 168.677,39.899 168.796,39.899 C168.978,39.899 169.1,39.75 169.1,39.658 C169.1,39.509 168.888,39.48 168.614,39.48" id="Fill-27" fill="#1A1918"></path>
            <path d="M168.614,39.48 C167.532,39.48 166.659,39.538 166.358,39.538 C166.058,39.538 164.793,39.48 163.585,39.48 C163.286,39.48 163.073,39.509 163.073,39.658 C163.073,39.75 163.104,39.899 163.286,39.899 C163.495,39.899 164.1,39.93 164.579,40.018 C165.393,40.172 165.545,40.744 165.574,42.398 L165.845,55.234 C165.033,54.39 162.2,51.348 159.581,48.634 C159.556,48.611 159.537,48.59 159.512,48.566 L159.512,52.049 C162.023,54.613 164.717,57.262 164.942,57.461 C166.417,58.816 166.689,59.028 166.958,59.028 C167.14,59.028 167.169,58.877 167.169,57.192 L167.23,42.188 C167.23,40.651 167.292,40.141 168.166,39.959 C168.466,39.899 168.677,39.899 168.796,39.899 C168.978,39.899 169.1,39.75 169.1,39.658 C169.1,39.509 168.888,39.48 168.614,39.48 L168.614,39.48 Z" id="Stroke-28" stroke="#1A1918" stroke-width="0.25"></path>
            <path d="M2.385,46.891 C2.385,42.911 2.385,42.188 2.325,41.376 C2.264,40.502 2.113,40.081 1.239,39.959 C1.03,39.93 0.577,39.899 0.337,39.899 C0.246,39.899 0.125,39.781 0.125,39.687 C0.125,39.538 0.246,39.48 0.547,39.48 C1.752,39.48 3.409,39.538 3.56,39.538 C4.072,39.538 9.826,39.567 10.427,39.538 C10.939,39.509 11.391,39.509 11.632,39.418 C11.782,39.387 11.905,39.269 11.996,39.269 C12.114,39.269 12.176,39.387 12.176,39.509 C12.176,39.687 12.056,39.99 11.965,40.715 C11.933,40.955 11.905,42.099 11.844,42.398 C11.814,42.52 11.723,42.671 11.603,42.671 C11.483,42.671 11.391,42.549 11.391,42.371 C11.391,42.159 11.302,41.737 11.151,41.407 C11.001,41.076 10.368,40.651 9.345,40.651 L5.006,40.591 C4.855,40.591 4.795,40.651 4.795,40.864 L4.795,47.854 C4.795,48.002 4.795,48.093 4.975,48.093 L8.589,48.063 C9.042,48.063 9.434,48.063 9.796,48.033 C10.427,47.973 10.79,47.882 11.03,47.58 C11.151,47.432 11.271,47.312 11.361,47.312 C11.483,47.312 11.512,47.398 11.512,47.522 C11.512,47.672 11.331,48.093 11.271,48.938 C11.213,49.449 11.181,50.474 11.181,50.653 C11.181,50.893 11.121,51.166 10.939,51.166 C10.79,51.166 10.76,51.046 10.76,50.922 C10.729,50.653 10.699,50.292 10.578,49.988 C10.459,49.629 10.036,49.299 9.222,49.179 C8.559,49.088 5.428,49.119 4.975,49.119 C4.826,49.119 4.795,49.179 4.795,49.36 L4.795,51.405 C4.795,53.937 4.795,55.953 4.915,56.949 C5.006,57.701 5.156,58.184 5.878,58.304 C6.271,58.365 6.842,58.428 7.085,58.428 C7.234,58.428 7.295,58.547 7.295,58.635 C7.295,58.758 7.174,58.847 6.874,58.847 C5.398,58.847 3.681,58.758 3.56,58.758 C3.409,58.758 1.752,58.847 0.938,58.847 C0.667,58.847 0.517,58.787 0.517,58.635 C0.517,58.547 0.577,58.428 0.729,58.428 C0.968,58.428 1.3,58.334 1.542,58.304 C2.054,58.213 2.113,57.701 2.234,56.949 C2.385,55.896 2.385,53.879 2.385,51.405 L2.385,46.891" id="Fill-30" fill="#1A1918"></path>
            <path d="M2.385,46.891 C2.385,42.911 2.385,42.188 2.325,41.376 C2.264,40.502 2.113,40.081 1.239,39.959 C1.03,39.93 0.577,39.899 0.337,39.899 C0.246,39.899 0.125,39.781 0.125,39.687 C0.125,39.538 0.246,39.48 0.547,39.48 C1.752,39.48 3.409,39.538 3.56,39.538 C4.072,39.538 9.826,39.567 10.427,39.538 C10.939,39.509 11.391,39.509 11.632,39.418 C11.782,39.387 11.905,39.269 11.996,39.269 C12.114,39.269 12.176,39.387 12.176,39.509 C12.176,39.687 12.056,39.99 11.965,40.715 C11.933,40.955 11.905,42.099 11.844,42.398 C11.814,42.52 11.723,42.671 11.603,42.671 C11.483,42.671 11.391,42.549 11.391,42.371 C11.391,42.159 11.302,41.737 11.151,41.407 C11.001,41.076 10.368,40.651 9.345,40.651 L5.006,40.591 C4.855,40.591 4.795,40.651 4.795,40.864 L4.795,47.854 C4.795,48.002 4.795,48.093 4.975,48.093 L8.589,48.063 C9.042,48.063 9.434,48.063 9.796,48.033 C10.427,47.973 10.79,47.882 11.03,47.58 C11.151,47.432 11.271,47.312 11.361,47.312 C11.483,47.312 11.512,47.398 11.512,47.522 C11.512,47.672 11.331,48.093 11.271,48.938 C11.213,49.449 11.181,50.474 11.181,50.653 C11.181,50.893 11.121,51.166 10.939,51.166 C10.79,51.166 10.76,51.046 10.76,50.922 C10.729,50.653 10.699,50.292 10.578,49.988 C10.459,49.629 10.036,49.299 9.222,49.179 C8.559,49.088 5.428,49.119 4.975,49.119 C4.826,49.119 4.795,49.179 4.795,49.36 L4.795,51.405 C4.795,53.937 4.795,55.953 4.915,56.949 C5.006,57.701 5.156,58.184 5.878,58.304 C6.271,58.365 6.842,58.428 7.085,58.428 C7.234,58.428 7.295,58.547 7.295,58.635 C7.295,58.758 7.174,58.847 6.874,58.847 C5.398,58.847 3.681,58.758 3.56,58.758 C3.409,58.758 1.752,58.847 0.938,58.847 C0.667,58.847 0.517,58.787 0.517,58.635 C0.517,58.547 0.577,58.428 0.729,58.428 C0.968,58.428 1.3,58.334 1.542,58.304 C2.054,58.213 2.113,57.701 2.234,56.949 C2.385,55.896 2.385,53.879 2.385,51.405 L2.385,46.891 L2.385,46.891 Z" id="Stroke-31" stroke="#1A1918" stroke-width="0.25"></path>
        </g>
    </g>
</svg>