<?xml version="1.0" encoding="utf-8"?>
<!-- Generator: Avocode 2.6.0 - http://avocode.com -->
<svg height="14" width="16" xmlns:xlink="http://www.w3.org/1999/xlink" xmlns="http://www.w3.org/2000/svg" viewBox="0 0 16 14">
    <path id="tw-icon" fill="#000" fill-rule="evenodd" d="M 14.04 2.58 C 14.67 2.18 15.16 1.54 15.39 0.78 C 14.79 1.16 14.13 1.43 13.43 1.57 C 12.87 0.94 12.07 0.55 11.19 0.55 C 9.49 0.55 8.11 2 8.11 3.79 C 8.11 4.05 8.14 4.29 8.19 4.53 C 5.63 4.4 3.37 3.1 1.85 1.14 C 1.58 1.62 1.43 2.18 1.43 2.77 C 1.43 3.9 1.97 4.89 2.8 5.47 C 2.29 5.46 1.82 5.31 1.4 5.07 L 1.4 5.11 C 1.4 6.68 2.46 7.99 3.87 8.29 C 3.62 8.37 3.34 8.41 3.06 8.41 C 2.86 8.41 2.67 8.39 2.48 8.35 C 2.88 9.64 4.01 10.58 5.36 10.6 C 4.3 11.47 2.98 11.99 1.54 11.99 C 1.29 11.99 1.04 11.98 0.8 11.95 C 2.16 12.87 3.78 13.4 5.52 13.4 C 11.18 13.4 14.27 8.46 14.27 4.17 C 14.27 4.03 14.27 3.89 14.27 3.75 C 14.87 3.29 15.39 2.72 15.8 2.07 C 15.25 2.33 14.66 2.5 14.04 2.58 Z M 14.04 2.58" />
</svg>