<?xml version="1.0" encoding="utf-8"?>
<!-- Generator: Avocode 2.6.0 - http://avocode.com -->
<svg height="11" width="19" xmlns:xlink="http://www.w3.org/1999/xlink" xmlns="http://www.w3.org/2000/svg" viewBox="0 0 19 11">
    <path id="vk-icon" fill="#000" fill-rule="evenodd" d="M 10.75 10.93 C 10.75 10.93 11.07 10.9 11.24 10.72 C 11.39 10.57 11.38 10.26 11.38 10.26 C 11.38 10.26 11.36 8.86 12.03 8.65 C 12.68 8.45 13.52 10.01 14.42 10.61 C 15.09 11.07 15.6 10.97 15.6 10.97 L 17.99 10.93 C 17.99 10.93 19.23 10.86 18.64 9.9 C 18.59 9.82 18.3 9.18 16.87 7.88 C 15.37 6.52 15.57 6.74 17.38 4.38 C 18.47 2.95 18.91 2.07 18.77 1.7 C 18.64 1.34 17.84 1.43 17.84 1.43 L 15.15 1.45 C 15.15 1.45 14.95 1.42 14.81 1.51 C 14.66 1.59 14.57 1.79 14.57 1.79 C 14.57 1.79 14.14 2.9 13.58 3.85 C 12.38 5.84 11.9 5.95 11.71 5.82 C 11.25 5.53 11.37 4.66 11.37 4.04 C 11.37 2.11 11.66 1.31 10.78 1.1 C 10.49 1.03 10.28 0.98 9.53 0.98 C 8.57 0.97 7.76 0.98 7.3 1.2 C 7 1.35 6.76 1.67 6.9 1.69 C 7.08 1.72 7.48 1.8 7.7 2.08 C 7.97 2.45 7.96 3.28 7.96 3.28 C 7.96 3.28 8.12 5.55 7.59 5.83 C 7.23 6.03 6.74 5.63 5.67 3.82 C 5.12 2.9 4.71 1.87 4.71 1.87 C 4.71 1.87 4.63 1.68 4.49 1.58 C 4.32 1.45 4.08 1.42 4.08 1.42 L 1.52 1.43 C 1.52 1.43 1.14 1.44 1 1.61 C 0.88 1.75 0.99 2.05 0.99 2.05 C 0.99 2.05 2.99 6.64 5.25 8.95 C 7.33 11.07 9.68 10.93 9.68 10.93 L 10.75 10.93 Z M 10.75 10.93" />
</svg>